<svg id="SvgjsSvg1001" width="288" height="288" xmlns="http://www.w3.org/2000/svg" version="1.1" xmlns:xlink="http://www.w3.org/1999/xlink" xmlns:svgjs="http://svgjs.com/svgjs"><defs id="SvgjsDefs1002"></defs><g id="SvgjsG1008" transform="matrix(1,0,0,1,0,0)"><svg xmlns="http://www.w3.org/2000/svg" xmlns:xlink="http://www.w3.org/1999/xlink" enable-background="new 0 0 1565.3 1565.3" viewBox="0 0 1565.3 1565.3" width="288" height="288"><defs><path id="a" d="M1462.8,1565.3H102.4C45.9,1565.3,0,1519.4,0,1462.8V102.4C0,45.9,45.9,0,102.4,0h1360.4
				c56.6,0,102.4,45.9,102.4,102.4v1360.4C1565.3,1519.4,1519.4,1565.3,1462.8,1565.3z" fill="#000000" class="color000 svgShape"></path></defs><clipPath id="b"><use display="none" overflow="visible" xlink:href="#a"></use></clipPath><path fill="#0f0f10" d="M1564,1565.3H1.3c-0.7,0-1.3-0.6-1.3-1.3V1.3C0,0.6,0.6,0,1.3,0H1564c0.7,0,1.3,0.6,1.3,1.3V1564
			C1565.3,1564.7,1564.7,1565.3,1564,1565.3z" clip-path="url(#b)" display="none" class="color0f0f10 svgShape"></path><defs><path id="c" d="M1462.8,1565.3H102.4C45.9,1565.3,0,1519.4,0,1462.8V102.4C0,45.9,45.9,0,102.4,0h1360.4
				c56.6,0,102.4,45.9,102.4,102.4v1360.4C1565.3,1519.4,1519.4,1565.3,1462.8,1565.3z" fill="#000000" class="color000 svgShape"></path></defs><clipPath id="d"><use overflow="visible" xlink:href="#c"></use></clipPath><g clip-path="url(#d)" fill="#000000" class="color000 svgShape"><defs><path id="e" d="M300.5,761.2l-3.5-3.4C298.1,759.2,299.3,760.3,300.5,761.2" fill="#000000" class="color000 svgShape"></path></defs><clipPath id="f"><use overflow="visible" xlink:href="#e"></use></clipPath><linearGradient id="g" x1="-13.808" x2="-12.808" y1="-538.282" y2="-538.282" gradientTransform="matrix(3.47 0 0 3.47 344.94 2627.32)" gradientUnits="userSpaceOnUse"><stop offset="0" stop-color="#18191d" class="stopColora3c4e8 svgShape"></stop><stop offset=".159" stop-color="#18191d" class="stopColora3c4e8 svgShape"></stop><stop offset=".592" stop-color="#030404" class="stopColord0eceb svgShape"></stop><stop offset=".888" stop-color="#191a23" class="stopColor8faad8 svgShape"></stop><stop offset="1" stop-color="#191a23" class="stopColor8faad8 svgShape"></stop></linearGradient><rect width="3.5" height="3.4" x="297" y="757.8" fill="url(#g)" clip-path="url(#f)"></rect></g><defs><path id="h" d="M1462.8,1565.3H102.4C45.9,1565.3,0,1519.4,0,1462.8V102.4C0,45.9,45.9,0,102.4,0h1360.4
				c56.6,0,102.4,45.9,102.4,102.4v1360.4C1565.3,1519.4,1519.4,1565.3,1462.8,1565.3z" fill="#000000" class="color000 svgShape"></path></defs><clipPath id="i"><use overflow="visible" xlink:href="#h"></use></clipPath><g clip-path="url(#i)" fill="#000000" class="color000 svgShape"><defs><path id="j" d="M510.4,592.4c-30.8,5.5-60.8,13.9-90.1,25.1c-29.3,11.3-55.8,25.4-79.6,42.3
						c-12.3,8.9-21.5,19.4-27.7,31.5c-6.2,12.1-9.9,23.2-11.1,33.4c-1.3,10.2-0.9,18.1,1.3,23.9c2.1,5.7,5.3,6.7,9.5,2.9
						c17.4-16.5,38.4-32.3,63-47.4c24.6-15.1,50.9-28.4,78.9-40.1c28-11.7,56.9-21.2,86.6-28.6c29.7-7.4,58.2-11.9,85.6-13.4
						c27.4-1.5,52.6,0.4,75.7,5.7c23.1,5.3,42.1,15,57,29c17.4,15.7,26.1,34.5,26.1,56.3c0,21.9-6.3,44.9-18.8,69.1
						c-12.5,24.2-30.3,48.6-53.5,73.2c-23.1,24.6-49.1,47.6-78,69.1c-28.9,21.4-59.5,40.4-92,57s-64.4,28.8-95.8,36.9
						c4.2-27.2,11.7-55.1,22.3-83.7c10.6-28.6,22.1-55.8,34.4-81.5c12.3-25.7,24.6-48.5,36.9-68.4c12.3-19.9,22.5-34.6,30.5-43.9
						c3-3,3.3-5.8,1-8.6c-2.3-2.8-6.2-4.9-11.5-6.4c-5.3-1.5-11.6-2.2-18.8-2.2c-7.2,0-14.2,0.8-21,2.5c-7.2,2.1-15.2,9-23.9,20.7
						c-8.7,11.7-17.6,26.3-26.7,43.9c-9.1,17.6-18,37.2-26.7,58.9c-8.7,21.6-16.2,43.4-22.6,65.2c-6.4,21.9-11.4,42.9-15,63
						c-3.6,20.2-5,37.4-4.1,51.9c-30.5,6.8-61.6,10.1-93.3,9.9c-31.6-0.2-61.4-6.1-89.4-17.5c-12.3-4.7-20.7-7.1-25.1-7.3
						c-4.4-0.2-6.2,1-5.1,3.5c1.1,2.5,4.6,5.9,10.5,10.2c5.9,4.2,13.4,8.5,22.3,12.7c41.2,19.1,84.2,29.2,129.2,30.2
						c45,1.1,89.1-4.1,132.4-15.6c43.3-11.5,84.5-28.1,123.8-50c39.2-21.8,73.9-46.2,104.1-72.9c19.5-17.4,37.1-36.3,52.8-56.7
						c15.7-20.4,28-41.5,36.9-63.3c8.9-21.8,13.9-43.8,15-65.9c1-22.1-3.5-43.7-13.7-64.9c-10.6-20.8-26-38.2-46.2-52.2
						c-20.2-14-43.3-24.7-69.4-32.1c-26.1-7.4-54.4-11.6-85-12.4c-4.1-0.1-8.1-0.2-12.2-0.2C563.7,585.2,537.1,587.6,510.4,592.4" fill="#000000" class="color000 svgShape"></path></defs><clipPath id="k"><use overflow="visible" xlink:href="#j"></use></clipPath><linearGradient id="l" x1="66.179" x2="67.179" y1="-500.832" y2="-500.832" gradientTransform="translate(-41336.676 315090.5) scale(627.4799)" gradientUnits="userSpaceOnUse"><stop offset="0" stop-color="#18191d" class="stopColora3c4e8 svgShape"></stop><stop offset=".497" stop-color="#191a23" class="stopColor8faad8 svgShape"></stop><stop offset=".994" stop-color="#0c0a0a" class="stopColorfff svgShape"></stop><stop offset="1" stop-color="#0c0a0a" class="stopColorfff svgShape"></stop></linearGradient><rect width="629.1" height="487.2" x="188.6" y="585.2" fill="url(#l)" clip-path="url(#k)"></rect></g><g fill="#000000" class="color000 svgShape"><defs><path id="m" d="M1462.8,1565.3H102.4C45.9,1565.3,0,1519.4,0,1462.8V102.4C0,45.9,45.9,0,102.4,0h1360.4
				c56.6,0,102.4,45.9,102.4,102.4v1360.4C1565.3,1519.4,1519.4,1565.3,1462.8,1565.3z" fill="#000000" class="color000 svgShape"></path></defs><clipPath id="n"><use overflow="visible" xlink:href="#m"></use></clipPath><g clip-path="url(#n)" fill="#000000" class="color000 svgShape"><defs><path id="o" d="M1465.6,441.3c-28.9,21.8-58.8,39.7-89.8,53.7c-31,14-62.5,25.7-94.5,35.2c-32,9.5-64.5,17.6-97.4,24.3
						c-32.9,6.7-65.6,13.7-98,21c-32.5,7.3-64.3,15.8-95.5,25.6c-31.2,9.8-61.4,22.2-90.7,37.3c-8.5,4.5-14.9,10.9-19.1,19.3
						c-4.3,8.4-7.1,16.5-8.6,24.3c-1.5,7.8-1.9,14.4-1.3,19.7c0.6,5.3,2,7.4,4.1,6.3c34.8-17.9,68-32.8,99.6-44.9
						c31.6-12,63-22.4,94.2-31c31.2-8.7,62.8-16.4,94.8-23.1c32-6.7,65.7-13.7,100.9-21c-37.3,29.7-74.5,59-111.4,88.1
						c-36.9,29.1-73.5,58.7-109.8,88.9s-71.8,61.5-106.6,94c-34.8,32.4-68.7,67.1-101.8,104c-22.5,10.1-40.8,23.2-55.1,39.4
						c-14.2,16.2-24.6,31.5-31.2,45.7c-6.6,14.3-9.5,25.7-8.9,34.4c0.6,8.7,4.8,10.5,12.4,5.4c29.3-20.1,62.1-40.6,98.3-61.2
						c36.3-20.7,73.5-39.4,111.7-56.2c38.2-16.8,75.8-30.5,112.7-41.1c36.9-10.6,70.7-15.9,101.2-15.9h14.6c4.7,0,8.3-0.4,10.8-1.3
						c2.6-0.8,3.6-2.7,3.2-5.5c-0.4-2.8-3.4-7-8.9-12.6c-5.9-6.2-12.4-10.6-19.4-13.4c-7-2.8-14.1-4.5-21.3-5
						c-7.2-0.5-14.6-0.4-22.3,0.4c-7.6,0.8-15.1,1.5-22.3,2.1c-38.2,4.5-76.1,12.5-113.6,23.9c-37.5,11.5-74.8,24.2-111.7,38.2
						c24.6-23.5,50.9-47.8,78.9-73s56.5-50.2,85.6-75.1c29.1-24.9,57.8-48.9,86.3-72.1c28.4-23.2,55.6-44.9,81.5-65
						c25.9-20.1,49.8-38.2,71.6-54.1c21.8-15.9,40.4-28.7,55.7-38.2c20.4-7.8,39.3-16.4,57-25.6c17.6-9.2,29.8-16.6,36.6-22.2
						c7.6-6.7,13.8-14.5,18.5-23.5c4.7-8.9,8.1-17.5,10.2-25.6c2.1-8.1,3-14.7,2.6-19.7c-0.3-3.8-1.1-5.7-2.4-5.7
						C1466.6,440.7,1466.1,440.9,1465.6,441.3" fill="#000000" class="color000 svgShape"></path></defs><clipPath id="p"><use overflow="visible" xlink:href="#o"></use></clipPath><linearGradient id="q" x1="66.241" x2="67.24" y1="-500.801" y2="-500.801" gradientTransform="translate(-47618 366362.469) scale(730.0209)" gradientUnits="userSpaceOnUse"><stop offset="0" stop-color="#0c0a0a" class="stopColorfff svgShape"></stop><stop offset=".578" stop-color="#18191d" class="stopColora3c4e8 svgShape"></stop><stop offset=".888" stop-color="#191a23" class="stopColor8faad8 svgShape"></stop><stop offset="1" stop-color="#191a23" class="stopColor8faad8 svgShape"></stop></linearGradient><rect width="730.8" height="652.4" x="739" y="440.7" fill="url(#q)" clip-path="url(#p)"></rect></g></g><g fill="#000000" class="color000 svgShape"><defs><path id="r" d="M1462.8,1565.3H102.4C45.9,1565.3,0,1519.4,0,1462.8V102.4C0,45.9,45.9,0,102.4,0h1360.4
				c56.6,0,102.4,45.9,102.4,102.4v1360.4C1565.3,1519.4,1519.4,1565.3,1462.8,1565.3z" fill="#000000" class="color000 svgShape"></path></defs><clipPath id="s"><use overflow="visible" xlink:href="#r"></use></clipPath><path fill="#171616" d="M479.5,937c-0.1,0.3-0.2,0.6-0.3,0.9c-3.1,8.4-5.9,16.7-8.5,25l28.4,27.9c8-3.3,16.2-6.8,24.3-10.6L479.5,937
			z M1351.7,643l-45.4-42.3c-3.7,2.7-7.6,5.5-11.6,8.4c-2.8,2.1-5.7,4.2-8.7,6.4l42.2,39.4l2.4,21l-150.3,147.6l-10,9.8l-33.3,32.8
			c3.1-0.3,6.2-0.3,9.2-0.3c3.2,0,6.4,0.1,9.5,0.4c4.7,0.4,9.4,1.2,14,2.4l35.8-35.1l10-9.8l141-138.5L1351.7,643z M479.5,937
			c-0.1,0.3-0.2,0.6-0.3,0.9c-3.1,8.4-5.9,16.7-8.5,25l28.4,27.9c8-3.3,16.2-6.8,24.3-10.6L479.5,937z M1077.5,939
			c-7.1,2-14.2,4.2-21.4,6.5l-284,279l-195.3-191.9c-8,3.7-16.1,7.3-24.3,10.6L772.1,1259L1105,932
			C1096.1,934,1086.9,936.3,1077.5,939 M1185.6,488.1H354.2l-161.7,155l-4.8,41.8l141,138.5l10,9.8l74.9,73.6
			c2.6-8.7,5.4-17.5,8.4-26.2l-48.3-47.4l-10-9.8l-63.4-62.2l-3.5-3.4l-83.5-82l2.4-21.1l148.1-142h811.8l29.2,27.2
			c9.6-2.1,19.2-4.4,28.7-6.9L1185.6,488.1z" clip-path="url(#s)" class="colorfff svgShape"></path></g><g fill="#000000" class="color000 svgShape"><defs><path id="t" d="M1462.8,1565.3H102.4C45.9,1565.3,0,1519.4,0,1462.8V102.4C0,45.9,45.9,0,102.4,0h1360.4
				c56.6,0,102.4,45.9,102.4,102.4v1360.4C1565.3,1519.4,1519.4,1565.3,1462.8,1565.3z" fill="#000000" class="color000 svgShape"></path></defs><clipPath id="u"><use overflow="visible" xlink:href="#t"></use></clipPath><polygon fill="#171616" points="231.6 875.8 244.8 879.3 -63.9 879.3 -63.9 875.8" clip-path="url(#u)" class="colorfff svgShape"></polygon></g><g fill="#000000" class="color000 svgShape"><defs><path id="v" d="M1462.8,1565.3H102.4C45.9,1565.3,0,1519.4,0,1462.8V102.4C0,45.9,45.9,0,102.4,0h1360.4
				c56.6,0,102.4,45.9,102.4,102.4v1360.4C1565.3,1519.4,1519.4,1565.3,1462.8,1565.3z" fill="#000000" class="color000 svgShape"></path></defs><clipPath id="w"><use overflow="visible" xlink:href="#v"></use></clipPath><polygon fill="#171616" points="1629.2 875.8 1629.2 879.3 1292.9 879.3 1306.1 875.8" clip-path="url(#w)" class="colorfff svgShape"></polygon></g></svg></g></svg>