<?xml version="1.0" encoding="utf-8"?>
<!-- Generator: Adobe Illustrator 23.1.0, SVG Export Plug-In . SVG Version: 6.00 Build 0)  -->
<svg version="1.1" id="Layer_1" xmlns="http://www.w3.org/2000/svg" xmlns:xlink="http://www.w3.org/1999/xlink" x="0px" y="0px"
	 viewBox="0 0 1565.25 1565.25" style="enable-background:new 0 0 1565.25 1565.25;" xml:space="preserve">
<style type="text/css">
	.st0{clip-path:url(#SVGID_2_);fill:#0F0F10;}
	.st1{clip-path:url(#SVGID_2_);}
	.st2{clip-path:url(#SVGID_4_);fill:url(#SVGID_5_);}
	.st3{clip-path:url(#SVGID_7_);fill:url(#SVGID_8_);}
	.st4{clip-path:url(#SVGID_10_);fill:url(#SVGID_11_);}
	.st5{clip-path:url(#SVGID_2_);fill:#FFFFFF;}
</style>
<g>
	<defs>
		<path id="SVGID_1_" d="M1462.81,1565.25H102.44C45.86,1565.25,0,1519.39,0,1462.81V102.44C0,45.86,45.86,0,102.44,0h1360.38
			c56.57,0,102.44,45.86,102.44,102.44v1360.38C1565.25,1519.39,1519.39,1565.25,1462.81,1565.25z"/>
	</defs>
	<clipPath id="SVGID_2_">
		<use xlink:href="#SVGID_1_"  style="overflow:visible;"/>
	</clipPath>
	<path class="st0" d="M1563.98,1565.25H1.27c-0.7,0-1.27-0.57-1.27-1.27V1.27C0,0.57,0.57,0,1.27,0h1562.71
		c0.7,0,1.27,0.57,1.27,1.27v1562.71C1565.25,1564.68,1564.68,1565.25,1563.98,1565.25z"/>
	<g class="st1">
		<defs>
			<path id="SVGID_3_" d="M300.51,761.19l-3.47-3.42C298.15,759.24,299.32,760.35,300.51,761.19"/>
		</defs>
		<clipPath id="SVGID_4_">
			<use xlink:href="#SVGID_3_"  style="overflow:visible;"/>
		</clipPath>
		
			<linearGradient id="SVGID_5_" gradientUnits="userSpaceOnUse" x1="-215.2514" y1="1739.7495" x2="-214.2514" y2="1739.7495" gradientTransform="matrix(3.47 0 0 -3.47 1043.9497 6796.3296)">
			<stop  offset="0" style="stop-color:#A3C4E8"/>
			<stop  offset="0.1592" style="stop-color:#A3C4E8"/>
			<stop  offset="0.5922" style="stop-color:#D0ECEB"/>
			<stop  offset="0.8878" style="stop-color:#8FAAD8"/>
			<stop  offset="1" style="stop-color:#8FAAD8"/>
		</linearGradient>
		<rect x="297.04" y="757.77" class="st2" width="3.47" height="3.42"/>
	</g>
	<g class="st1">
		<defs>
			<path id="SVGID_6_" d="M510.42,592.38c-30.77,5.52-60.79,13.9-90.07,25.14c-29.28,11.25-55.8,25.36-79.56,42.33
				c-12.31,8.91-21.54,19.41-27.69,31.51c-6.16,12.09-9.87,23.23-11.14,33.42c-1.27,10.18-0.86,18.14,1.27,23.87
				c2.12,5.73,5.3,6.68,9.55,2.86c17.4-16.55,38.4-32.35,63.02-47.42c24.6-15.06,50.92-28.42,78.93-40.1
				c28.01-11.66,56.86-21.21,86.57-28.64c29.7-7.42,58.24-11.87,85.61-13.37c27.37-1.48,52.61,0.43,75.74,5.73
				c23.12,5.31,42.11,14.96,56.97,28.96c17.39,15.7,26.1,34.48,26.1,56.33c0,21.86-6.27,44.88-18.78,69.06
				c-12.52,24.19-30.35,48.59-53.47,73.2c-23.13,24.62-49.12,47.64-77.97,69.06c-28.86,21.43-59.51,40.42-91.97,56.97
				c-32.46,16.55-64.4,28.85-95.8,36.92c4.24-27.15,11.67-55.06,22.28-83.7c10.6-28.64,22.06-55.79,34.37-81.47
				c12.3-25.67,24.6-48.47,36.92-68.43c12.3-19.94,22.49-34.58,30.55-43.92c2.96-2.96,3.28-5.83,0.95-8.59
				c-2.34-2.75-6.16-4.87-11.46-6.36c-5.31-1.48-11.56-2.23-18.77-2.23c-7.22,0-14.23,0.85-21.01,2.55
				c-7.22,2.13-15.18,9.02-23.87,20.68c-8.7,11.68-17.61,26.32-26.73,43.92c-9.13,17.61-18.04,37.24-26.73,58.88
				c-8.7,21.64-16.23,43.39-22.59,65.24c-6.37,21.86-11.36,42.87-14.96,63.02c-3.61,20.16-4.99,37.44-4.14,51.87
				c-30.55,6.78-61.64,10.07-93.25,9.87c-31.62-0.22-61.42-6.05-89.43-17.5c-12.31-4.68-20.69-7.11-25.14-7.32
				c-4.45-0.22-6.16,0.95-5.09,3.5c1.05,2.55,4.55,5.94,10.5,10.19c5.94,4.23,13.37,8.48,22.28,12.73
				c41.15,19.1,84.23,29.17,129.21,30.23c44.97,1.05,89.11-4.14,132.39-15.59c43.28-11.46,84.55-28.12,123.8-49.97
				c39.24-21.85,73.93-46.15,104.07-72.88c19.51-17.39,37.13-36.28,52.83-56.65c15.69-20.37,28.01-41.47,36.92-63.33
				c8.91-21.85,13.89-43.81,14.96-65.88c1.05-22.06-3.5-43.7-13.68-64.92c-10.61-20.78-26-38.19-46.15-52.19
				c-20.16-14-43.28-24.71-69.38-32.14c-26.1-7.42-54.42-11.56-84.97-12.41c-4.06-0.11-8.11-0.17-12.17-0.17
				C563.7,585.2,537.09,587.6,510.42,592.38"/>
		</defs>
		<clipPath id="SVGID_7_">
			<use xlink:href="#SVGID_6_"  style="overflow:visible;"/>
		</clipPath>
		
			<linearGradient id="SVGID_8_" gradientUnits="userSpaceOnUse" x1="-216.37" y1="1783.3804" x2="-215.3701" y2="1783.3804" gradientTransform="matrix(627.4799 0 0 -627.4799 135957.1406 1119864.25)">
			<stop  offset="0" style="stop-color:#A3C4E8"/>
			<stop  offset="0.4968" style="stop-color:#8FAAD8"/>
			<stop  offset="0.9944" style="stop-color:#FFFFFF"/>
			<stop  offset="1" style="stop-color:#FFFFFF"/>
		</linearGradient>
		<rect x="188.55" y="585.2" class="st3" width="629.08" height="487.2"/>
	</g>
	<g class="st1">
		<defs>
			<path id="SVGID_9_" d="M1465.61,441.32c-28.86,21.81-58.78,39.72-89.75,53.69c-30.98,13.99-62.49,25.73-94.52,35.23
				c-32.04,9.52-64.51,17.62-97.39,24.33c-32.89,6.71-65.56,13.71-98.02,20.97c-32.46,7.27-64.29,15.81-95.48,25.59
				c-31.19,9.79-61.42,22.23-90.7,37.33c-8.5,4.48-14.86,10.9-19.1,19.3c-4.25,8.39-7.11,16.5-8.59,24.33
				c-1.49,7.84-1.91,14.4-1.27,19.71c0.64,5.32,2.01,7.42,4.13,6.29c34.79-17.89,68-32.85,99.61-44.88
				c31.61-12.02,63.02-22.36,94.21-31.04c31.19-8.67,62.79-16.36,94.84-23.07c32.04-6.71,65.66-13.7,100.89-20.97
				c-37.34,29.65-74.47,59.01-111.39,88.08c-36.92,29.08-73.52,58.72-109.8,88.92c-36.28,30.2-71.82,61.52-106.61,93.95
				c-34.8,32.44-68.74,67.11-101.84,104.02c-22.5,10.07-40.84,23.21-55.06,39.43c-14.21,16.21-24.6,31.46-31.19,45.72
				c-6.57,14.26-9.55,25.71-8.91,34.39c0.64,8.67,4.77,10.49,12.41,5.45c29.28-20.13,62.06-40.55,98.34-61.24
				c36.28-20.7,73.51-39.43,111.71-56.2c38.19-16.78,75.75-30.48,112.66-41.1c36.92-10.62,70.65-15.94,101.21-15.94h14.64
				c4.67,0,8.28-0.42,10.82-1.26c2.55-0.84,3.6-2.65,3.18-5.45c-0.43-2.79-3.4-6.99-8.91-12.58c-5.95-6.15-12.41-10.62-19.41-13.42
				c-7-2.79-14.11-4.47-21.32-5.03c-7.22-0.55-14.64-0.42-22.28,0.42c-7.64,0.84-15.07,1.55-22.28,2.1
				c-38.19,4.48-76.06,12.45-113.62,23.91c-37.55,11.47-74.79,24.2-111.71,38.17c24.6-23.49,50.92-47.81,78.93-72.98
				c28.01-25.17,56.54-50.19,85.61-75.08c29.06-24.88,57.81-48.93,86.25-72.14c28.42-23.2,55.58-44.88,81.47-65.01
				c25.88-20.13,49.75-38.17,71.61-54.11c21.85-15.94,40.42-28.65,55.7-38.17c20.37-7.82,39.35-16.36,56.97-25.59
				c17.6-9.23,29.8-16.63,36.6-22.23c7.64-6.71,13.78-14.54,18.46-23.49c4.67-8.94,8.06-17.47,10.19-25.58
				c2.12-8.1,2.96-14.68,2.55-19.71c-0.32-3.77-1.12-5.66-2.39-5.66C1466.62,440.69,1466.14,440.9,1465.61,441.32"/>
		</defs>
		<clipPath id="SVGID_10_">
			<use xlink:href="#SVGID_9_"  style="overflow:visible;"/>
		</clipPath>
		
			<linearGradient id="SVGID_11_" gradientUnits="userSpaceOnUse" x1="-216.3717" y1="1783.4137" x2="-215.3718" y2="1783.4137" gradientTransform="matrix(730.0209 0 0 -730.0209 158694.9063 1302696.25)">
			<stop  offset="0" style="stop-color:#FFFFFF"/>
			<stop  offset="0.5782" style="stop-color:#A3C4E8"/>
			<stop  offset="0.8878" style="stop-color:#8FAAD8"/>
			<stop  offset="1" style="stop-color:#8FAAD8"/>
		</linearGradient>
		<rect x="739.03" y="440.69" class="st4" width="730.82" height="652.42"/>
	</g>
	<path class="st5" d="M479.54,937.05c-0.1,0.29-0.22,0.57-0.32,0.86c-3.1,8.37-5.93,16.71-8.46,25l28.37,27.88
		c8.05-3.27,16.17-6.82,24.29-10.63L479.54,937.05z M1351.73,643l-45.37-42.3c-3.74,2.68-7.6,5.49-11.56,8.37
		c-2.85,2.07-5.73,4.21-8.69,6.37l42.22,39.37l2.39,20.96l-150.3,147.64l-10.02,9.84l-33.34,32.75c3.1-0.25,6.18-0.34,9.18-0.34
		c3.17,0,6.37,0.12,9.5,0.37c4.7,0.37,9.38,1.16,14,2.36l35.78-35.14l10.02-9.84l141-138.51L1351.73,643z M479.54,937.05
		c-0.1,0.29-0.22,0.57-0.32,0.86c-3.1,8.37-5.93,16.71-8.46,25l28.37,27.88c8.05-3.27,16.17-6.82,24.29-10.63L479.54,937.05z
		 M1077.51,938.99c-7.09,2.04-14.2,4.18-21.36,6.47l-284.01,279.01L576.81,1032.6c-8.02,3.74-16.14,7.28-24.34,10.58l219.66,215.8
		l332.9-327.02C1096.06,933.95,1086.88,936.29,1077.51,938.99 M1185.63,488.1H354.22l-161.67,155l-4.8,41.81l141,138.51l10.02,9.84
		l74.93,73.6c2.61-8.74,5.44-17.47,8.44-26.21l-48.25-47.39l-10.01-9.84l-63.36-62.23l-3.47-3.42l-83.47-81.99l2.41-21.06
		l148.13-142.01h811.82l29.18,27.22c9.6-2.14,19.17-4.43,28.72-6.87L1185.63,488.1z"/>
	<polygon class="st5" points="231.6,875.81 244.78,879.29 -63.93,879.29 -63.93,875.81 	"/>
	<polygon class="st5" points="1629.17,875.81 1629.17,879.29 1292.89,879.29 1306.06,875.81 	"/>
</g>
</svg>
