<?xml version="1.0" encoding="utf-8"?>
<!-- Generator: Adobe Illustrator 24.0.1, SVG Export Plug-In . SVG Version: 6.00 Build 0)  -->
<svg version="1.1" id="Layer_1" xmlns="http://www.w3.org/2000/svg" xmlns:xlink="http://www.w3.org/1999/xlink" x="0px" y="0px"
	 viewBox="0 0 100 65.35" style="enable-background:new 0 0 100 65.35;" xml:space="preserve">
<style type="text/css">
	.st0{fill:url(#SVGID_1_);}
	.st1{fill:url(#SVGID_2_);}
	.st2{fill:url(#SVGID_3_);}
	.st3{fill:url(#SVGID_4_);}
	.st4{fill:url(#SVGID_5_);}
	.st5{fill:url(#SVGID_6_);}
	.st6{fill:url(#SVGID_7_);}
	.st7{fill:url(#SVGID_8_);}
	.st8{fill:url(#SVGID_9_);}
	.st9{fill:url(#SVGID_10_);}
	.st10{fill:url(#SVGID_11_);}
	.st11{fill:url(#SVGID_12_);}
	.st12{fill:url(#SVGID_13_);}
	.st13{fill:url(#SVGID_14_);}
	.st14{fill:#FFFFFF;}
	.st15{font-family:'ArialMT';}
	.st16{font-size:3.3428px;}
</style>
<g>
	<g>
		<linearGradient id="SVGID_1_" gradientUnits="userSpaceOnUse" x1="1.6358" y1="52.1422" x2="14.072" y2="52.1422">
			<stop  offset="0" style="stop-color:#BCD8F1"/>
			<stop  offset="1" style="stop-color:#8FAAD8"/>
		</linearGradient>
		<path class="st0" d="M13.99,51.83c-0.21,1.31-0.7,2.44-1.48,3.41c-0.78,0.96-1.72,1.68-2.83,2.16c-1.11,0.48-2.31,0.72-3.61,0.72
			c-2.41,0-3.61-0.62-3.61-1.85c0-1.33,1.17-4.32,3.52-8.96c0.11-0.22,0.19-0.38,0.25-0.47c-0.88,0.07-1.77,0.26-2.68,0.58
			c-0.91,0.32-1.5,0.72-1.78,1.2c-0.01,0.03-0.04,0.05-0.08,0.05c-0.04,0-0.07-0.03-0.07-0.09c0-0.06,0.01-0.1,0.02-0.12
			c0.42-1.15,1.19-1.86,2.31-2.11c0.51-0.11,1.19-0.17,2.04-0.17h3.41c1.57,0,2.74,0.43,3.51,1.28c0.76,0.85,1.15,1.94,1.15,3.26
			C14.07,51.03,14.04,51.41,13.99,51.83z M12.24,51.96c0.12-0.51,0.18-1,0.18-1.46c0-1.08-0.32-1.97-0.95-2.68
			c-0.35-0.39-0.84-0.67-1.45-0.86c-0.62-0.18-1.19-0.27-1.72-0.27c-0.53,0.7-1.17,1.85-1.9,3.45c-0.74,1.6-1.33,3.11-1.79,4.53
			c-0.23,0.7-0.35,1.26-0.35,1.69c0,0.43,0.11,0.71,0.33,0.84c0.22,0.13,0.62,0.2,1.18,0.2c1.54,0,2.91-0.52,4.12-1.55
			C11.11,54.81,11.89,53.51,12.24,51.96z"/>
		<linearGradient id="SVGID_2_" gradientUnits="userSpaceOnUse" x1="14.1882" y1="52.882" x2="19.4421" y2="52.882">
			<stop  offset="0" style="stop-color:#BCD8F1"/>
			<stop  offset="1" style="stop-color:#8FAAD8"/>
		</linearGradient>
		<path class="st1" d="M16.87,51.13l0.83,0.02h0.17c-0.18,0.13-0.41,0.49-0.71,1.08c-0.29,0.59-0.51,1.03-0.66,1.33
			c-0.14,0.3-0.31,0.7-0.49,1.21c-0.18,0.51-0.27,0.93-0.27,1.25c0,0.32,0.11,0.48,0.32,0.48c0.14,0,0.35-0.1,0.61-0.29
			c0.26-0.19,0.47-0.4,0.64-0.62c0.17-0.22,0.35-0.49,0.56-0.82c0.21-0.33,0.38-0.62,0.53-0.86c0.15-0.24,0.24-0.37,0.26-0.37
			c0.07,0,0.1,0.1,0.1,0.31c0,0.21-0.06,0.4-0.17,0.59c-0.41,0.69-0.78,1.26-1.12,1.72c-0.34,0.46-0.72,0.86-1.16,1.21
			c-0.43,0.34-0.83,0.52-1.18,0.52c-0.62,0-0.93-0.43-0.93-1.3c0-1.34,0.46-2.83,1.38-4.46C15.96,51.46,16.39,51.13,16.87,51.13z
			 M19.13,48.93h-0.07c-0.22,0-0.44,0.09-0.64,0.28c-0.21,0.19-0.35,0.38-0.44,0.58c-0.29-0.11-0.43-0.31-0.43-0.6
			c0-0.29,0.13-0.58,0.4-0.87c0.27-0.29,0.52-0.44,0.76-0.44c0.24,0,0.43,0.06,0.55,0.17c0.12,0.11,0.18,0.25,0.18,0.42
			C19.44,48.65,19.34,48.8,19.13,48.93z"/>
		<linearGradient id="SVGID_3_" gradientUnits="userSpaceOnUse" x1="17.846" y1="54.4698" x2="26.6079" y2="54.4698">
			<stop  offset="0" style="stop-color:#BCD8F1"/>
			<stop  offset="1" style="stop-color:#8FAAD8"/>
		</linearGradient>
		<path class="st2" d="M24.78,51.13l0.83,0.02h0.17c-0.37,0.3-0.81,1.06-1.35,2.27s-0.8,2.1-0.8,2.65c0,0.29,0.1,0.43,0.3,0.43
			c0.64,0,1.46-0.95,2.46-2.84c0.04-0.08,0.08-0.12,0.12-0.12c0.07,0,0.1,0.1,0.1,0.31c0,0.21-0.06,0.4-0.17,0.59
			c-1.36,2.29-2.51,3.44-3.42,3.44c-0.6,0-0.9-0.46-0.9-1.38c0-0.69,0.12-1.36,0.35-2.03c-1.26,2.24-2.43,3.36-3.51,3.36
			c-0.74,0-1.11-0.51-1.11-1.53c0-0.78,0.17-1.56,0.51-2.36c0.34-0.8,0.82-1.48,1.45-2.04c0.63-0.56,1.32-0.84,2.08-0.84
			c0.35,0,0.69,0.08,1,0.24c0.31,0.16,0.52,0.42,0.62,0.77c0.12-0.25,0.31-0.48,0.57-0.67C24.32,51.22,24.56,51.13,24.78,51.13z
			 M23.4,52.23c-0.11-0.35-0.37-0.53-0.78-0.53c-0.73,0-1.44,0.51-2.13,1.52c-0.69,1.01-1.03,1.92-1.03,2.72
			c0,0.34,0.13,0.52,0.4,0.52c0.29,0,0.63-0.18,1.01-0.54c0.39-0.36,0.74-0.78,1.05-1.27C22.61,53.55,23.1,52.75,23.4,52.23z"/>
		<linearGradient id="SVGID_4_" gradientUnits="userSpaceOnUse" x1="24.8786" y1="54.4614" x2="37.6641" y2="54.4614">
			<stop  offset="0" style="stop-color:#BCD8F1"/>
			<stop  offset="1" style="stop-color:#8FAAD8"/>
		</linearGradient>
		<path class="st3" d="M37.5,54.44c-0.41,0.69-0.78,1.26-1.12,1.72c-0.34,0.46-0.72,0.86-1.16,1.21c-0.43,0.34-0.83,0.52-1.18,0.52
			c-0.65,0-0.98-0.38-0.98-1.13c0-0.88,0.35-2.12,1.05-3.74c0.16-0.41,0.23-0.69,0.23-0.85c0-0.22-0.1-0.33-0.3-0.33
			c-0.12,0-0.33,0.07-0.63,0.22c-0.3,0.14-0.58,0.36-0.86,0.65c-0.27,0.29-0.49,0.55-0.66,0.8c-0.17,0.24-0.35,0.61-0.55,1.1
			c-0.2,0.49-0.33,0.83-0.4,1.03c-0.32,1-0.54,1.72-0.65,2.16h-1.63c0.58-1.6,0.97-2.67,1.19-3.23c0.22-0.55,0.35-0.9,0.39-1.03
			l0.15-0.47c0.12-0.35,0.18-0.65,0.18-0.88c0-0.23-0.11-0.35-0.32-0.35c-0.18,0-0.42,0.08-0.72,0.23c-0.3,0.16-0.6,0.38-0.89,0.68
			c-0.29,0.3-0.53,0.65-0.72,1.04c-0.19,0.39-0.35,0.73-0.47,1.02c-0.12,0.29-0.24,0.64-0.36,1.06c-0.12,0.42-0.23,0.75-0.32,1.01
			c-0.09,0.26-0.19,0.56-0.29,0.91h-1.61c0.12-0.47,0.26-0.88,0.4-1.25l1.08-2.76c0.44-1.11,0.67-1.92,0.67-2.43
			c0-0.11-0.01-0.18-0.03-0.22h0.7c0.38,0,0.62,0.04,0.73,0.11c0.11,0.07,0.17,0.17,0.17,0.29c0,0.12-0.07,0.4-0.2,0.85
			c0.98-0.89,1.95-1.33,2.93-1.33c0.59,0,0.88,0.24,0.88,0.73c0,0.21-0.06,0.47-0.18,0.78c1.01-1.01,2.04-1.51,3.11-1.51
			c0.58,0,0.86,0.24,0.86,0.73c0,0.22-0.04,0.43-0.12,0.63c-0.08,0.2-0.18,0.46-0.3,0.77c-0.12,0.32-0.22,0.58-0.3,0.78
			c-0.08,0.21-0.17,0.46-0.27,0.76c-0.21,0.61-0.32,1.06-0.32,1.36c0,0.29,0.09,0.44,0.27,0.44c0.18,0,0.41-0.12,0.69-0.37
			c0.28-0.24,0.48-0.45,0.62-0.63c0.14-0.18,0.31-0.43,0.52-0.76c0.21-0.33,0.38-0.61,0.52-0.86c0.14-0.24,0.23-0.37,0.25-0.37
			c0.07,0,0.1,0.1,0.1,0.31C37.66,54.05,37.61,54.25,37.5,54.44z"/>
		<linearGradient id="SVGID_5_" gradientUnits="userSpaceOnUse" x1="36.8825" y1="54.4614" x2="45.0957" y2="54.4614">
			<stop  offset="0" style="stop-color:#BCD8F1"/>
			<stop  offset="1" style="stop-color:#8FAAD8"/>
		</linearGradient>
		<path class="st4" d="M44.9,53.69c0.03-0.07,0.07-0.1,0.1-0.1c0.07,0,0.1,0.08,0.1,0.25c0,0.53-0.21,0.97-0.64,1.32
			c-0.43,0.35-0.83,0.52-1.2,0.52c-0.37,0-0.69-0.11-0.96-0.32c-0.4,0.79-0.87,1.41-1.42,1.86c-0.55,0.45-1.26,0.68-2.12,0.68
			c-0.55,0-1.01-0.17-1.35-0.51c-0.35-0.34-0.52-0.85-0.52-1.55c0-0.69,0.16-1.41,0.47-2.14c0.32-0.74,0.79-1.37,1.43-1.9
			c0.64-0.53,1.35-0.8,2.14-0.8c1.32,0,1.98,0.7,1.98,2.09c0,0.53-0.12,1.09-0.35,1.68c0.17,0.23,0.4,0.35,0.72,0.35
			C43.84,55.13,44.39,54.65,44.9,53.69z M42.12,52.66c-0.04-0.59-0.31-0.88-0.8-0.88c-0.76,0-1.51,0.74-2.24,2.23
			c-0.4,0.82-0.6,1.56-0.6,2.23c0,0.67,0.29,1.01,0.86,1.05c0.48,0,0.92-0.25,1.32-0.76c0.4-0.5,0.75-1.06,1.02-1.67
			c-0.38-0.32-0.57-0.73-0.57-1.21c0-0.3,0.08-0.54,0.24-0.71c0.16-0.18,0.38-0.27,0.66-0.27H42.12z"/>
		<linearGradient id="SVGID_6_" gradientUnits="userSpaceOnUse" x1="43.4163" y1="54.4614" x2="52.3777" y2="54.4614">
			<stop  offset="0" style="stop-color:#BCD8F1"/>
			<stop  offset="1" style="stop-color:#8FAAD8"/>
		</linearGradient>
		<path class="st5" d="M52.21,54.44c-0.41,0.69-0.78,1.26-1.12,1.72c-0.34,0.46-0.72,0.86-1.16,1.21c-0.43,0.34-0.83,0.52-1.18,0.52
			c-0.65,0-0.98-0.36-0.98-1.08c0-0.72,0.42-2.17,1.25-4.34c0.04-0.1,0.07-0.2,0.07-0.32c0-0.23-0.15-0.35-0.44-0.35
			s-0.58,0.09-0.86,0.27c-0.28,0.18-0.54,0.44-0.77,0.78c-0.23,0.34-0.44,0.68-0.63,1.03c-0.19,0.35-0.36,0.75-0.52,1.21
			c-0.16,0.45-0.29,0.83-0.38,1.14c-0.09,0.3-0.19,0.63-0.28,0.98c-0.09,0.35-0.15,0.54-0.16,0.57h-1.61c0-0.23,0.49-1.57,1.46-4.01
			c0.4-1.14,0.6-1.94,0.6-2.39c0-0.11-0.02-0.19-0.05-0.25h0.7c0.39,0,0.64,0.04,0.75,0.12c0.11,0.08,0.17,0.18,0.17,0.32
			c0,0.13-0.06,0.4-0.18,0.81c0.93-0.89,1.87-1.33,2.81-1.33c0.63,0,0.95,0.29,0.95,0.86c0,0.19-0.03,0.38-0.08,0.57
			c-0.06,0.19-0.19,0.57-0.42,1.13c-0.49,1.24-0.73,2.07-0.73,2.49c0,0.27,0.1,0.4,0.3,0.4c0.14,0,0.35-0.1,0.61-0.3
			c0.26-0.2,0.48-0.41,0.65-0.62c0.17-0.22,0.36-0.49,0.57-0.81c0.2-0.33,0.38-0.61,0.52-0.86c0.14-0.24,0.23-0.37,0.25-0.37
			c0.07,0,0.1,0.1,0.1,0.31C52.38,54.05,52.32,54.25,52.21,54.44z"/>
		<linearGradient id="SVGID_7_" gradientUnits="userSpaceOnUse" x1="51.4797" y1="52.3915" x2="61.0063" y2="52.3915">
			<stop  offset="0" style="stop-color:#BCD8F1"/>
			<stop  offset="1" style="stop-color:#8FAAD8"/>
		</linearGradient>
		<path class="st6" d="M61.01,46.91c-0.37,0.27-0.85,1.01-1.44,2.24c-0.59,1.22-1.12,2.52-1.57,3.87c-0.45,1.36-0.68,2.34-0.68,2.95
			c0,0.35,0.09,0.53,0.28,0.53s0.42-0.12,0.71-0.37c0.28-0.24,0.48-0.45,0.61-0.62c0.12-0.17,0.29-0.42,0.49-0.76
			c0.21-0.34,0.38-0.63,0.53-0.88c0.15-0.25,0.24-0.37,0.26-0.37c0.08,0,0.12,0.11,0.12,0.32c-0.01,0.39-0.47,1.2-1.38,2.43
			c-0.3,0.4-0.66,0.77-1.08,1.11c-0.42,0.34-0.8,0.52-1.15,0.52c-0.59,0-0.88-0.44-0.88-1.31c0-0.64,0.16-1.47,0.48-2.48
			c-0.51,1.01-1.09,1.88-1.75,2.63c-0.65,0.74-1.31,1.11-1.96,1.11c-0.74,0-1.11-0.51-1.11-1.53c0-0.78,0.17-1.56,0.51-2.36
			c0.34-0.8,0.82-1.48,1.45-2.04c0.63-0.56,1.32-0.84,2.05-0.84c0.74,0,1.24,0.24,1.52,0.73c0.31-0.61,0.63-1.31,0.96-2.11
			c0.33-0.8,0.54-1.32,0.65-1.55c0.11-0.24,0.18-0.41,0.23-0.52c0.05-0.11,0.11-0.22,0.19-0.32c0.12-0.16,0.27-0.25,0.44-0.29
			c0.17-0.04,0.45-0.06,0.83-0.07C60.7,46.92,60.93,46.92,61.01,46.91z M56.93,51.99c-0.13-0.2-0.35-0.3-0.66-0.3
			c-0.5,0-1,0.25-1.5,0.76c-0.5,0.5-0.91,1.09-1.21,1.75c-0.3,0.66-0.46,1.24-0.46,1.74c0,0.34,0.13,0.52,0.4,0.52
			C54.39,56.45,55.54,54.96,56.93,51.99z"/>
	</g>
	<g>
		<linearGradient id="SVGID_8_" gradientUnits="userSpaceOnUse" x1="64.7904" y1="52.0507" x2="78.0911" y2="52.0507">
			<stop  offset="0" style="stop-color:#BCD8F1"/>
			<stop  offset="1" style="stop-color:#8FAAD8"/>
		</linearGradient>
		<path class="st7" d="M78.09,46.17c-2.67,2.33-6.04,5.49-10.09,9.48c0.31,0.16,0.76,0.29,1.36,0.42c1.51,0.34,2.69,0.52,3.56,0.52
			c1.39,0,2.08-0.4,2.08-1.2c0-0.21-0.08-0.37-0.23-0.48c0-0.02,0.02-0.06,0.06-0.1c0.04-0.04,0.07-0.07,0.09-0.07
			c0.31,0.01,0.58,0.13,0.82,0.35c0.24,0.22,0.36,0.49,0.36,0.8c0,0.53-0.27,1.02-0.82,1.45c-0.55,0.44-1.22,0.66-2.01,0.66
			c-0.79,0-1.57-0.14-2.33-0.42c-0.76-0.28-1.43-0.56-2-0.84c-0.58-0.28-0.99-0.42-1.24-0.42s-0.62,0.27-1.12,0.82
			c-0.5,0.55-0.89,0.82-1.18,0.82c-0.18,0-0.32-0.06-0.43-0.19c-0.11-0.13-0.17-0.29-0.17-0.47c0-0.33,0.17-0.6,0.52-0.81
			c1.4-0.86,3.21-2.36,5.45-4.5c2.24-2.13,3.84-3.68,4.8-4.65c-0.4,0.18-0.89,0.33-1.48,0.47c-0.59,0.13-1.06,0.2-1.42,0.2
			c-0.36,0-0.91-0.04-1.64-0.11c-0.73-0.07-1.23-0.11-1.5-0.11c-0.27,0-0.57,0.14-0.9,0.42c-0.33,0.28-0.51,0.61-0.54,0.99
			c0,0.07-0.06,0.1-0.17,0.1c-0.08,0-0.12-0.11-0.12-0.33c0-0.45,0.17-0.94,0.52-1.47c0.35-0.53,0.69-0.89,1.01-1.08
			c0.33-0.19,0.75-0.29,1.28-0.29c0.53,0,1.23,0.1,2.12,0.3c0.89,0.2,1.62,0.3,2.2,0.3c0.58,0,1.09-0.1,1.52-0.31
			c0.43-0.21,0.79-0.31,1.06-0.31C77.8,46.11,77.99,46.13,78.09,46.17z"/>
		<linearGradient id="SVGID_9_" gradientUnits="userSpaceOnUse" x1="76.7279" y1="54.4614" x2="84.9411" y2="54.4614">
			<stop  offset="0" style="stop-color:#BCD8F1"/>
			<stop  offset="1" style="stop-color:#8FAAD8"/>
		</linearGradient>
		<path class="st8" d="M84.74,53.69c0.03-0.07,0.07-0.1,0.1-0.1c0.07,0,0.1,0.08,0.1,0.25c0,0.53-0.21,0.97-0.64,1.32
			c-0.43,0.35-0.83,0.52-1.2,0.52c-0.37,0-0.69-0.11-0.96-0.32c-0.4,0.79-0.87,1.41-1.42,1.86c-0.55,0.45-1.26,0.68-2.12,0.68
			c-0.55,0-1.01-0.17-1.35-0.51c-0.35-0.34-0.52-0.85-0.52-1.55c0-0.69,0.16-1.41,0.47-2.14c0.32-0.74,0.79-1.37,1.43-1.9
			c0.64-0.53,1.35-0.8,2.14-0.8c1.32,0,1.98,0.7,1.98,2.09c0,0.53-0.12,1.09-0.35,1.68c0.17,0.23,0.4,0.35,0.72,0.35
			C83.69,55.13,84.23,54.65,84.74,53.69z M81.97,52.66c-0.04-0.59-0.31-0.88-0.8-0.88c-0.76,0-1.51,0.74-2.24,2.23
			c-0.4,0.82-0.6,1.56-0.6,2.23c0,0.67,0.29,1.01,0.86,1.05c0.48,0,0.92-0.25,1.32-0.76c0.4-0.5,0.75-1.06,1.02-1.67
			c-0.38-0.32-0.57-0.73-0.57-1.21c0-0.3,0.08-0.54,0.24-0.71c0.16-0.18,0.38-0.27,0.66-0.27H81.97z"/>
		<linearGradient id="SVGID_10_" gradientUnits="userSpaceOnUse" x1="83.2617" y1="54.4614" x2="92.2231" y2="54.4614">
			<stop  offset="0" style="stop-color:#BCD8F1"/>
			<stop  offset="1" style="stop-color:#8FAAD8"/>
		</linearGradient>
		<path class="st9" d="M92.06,54.44c-0.41,0.69-0.78,1.26-1.12,1.72c-0.34,0.46-0.72,0.86-1.16,1.21c-0.43,0.34-0.83,0.52-1.18,0.52
			c-0.65,0-0.98-0.36-0.98-1.08c0-0.72,0.42-2.17,1.25-4.34c0.04-0.1,0.07-0.2,0.07-0.32c0-0.23-0.15-0.35-0.44-0.35
			c-0.29,0-0.58,0.09-0.86,0.27c-0.28,0.18-0.54,0.44-0.77,0.78c-0.23,0.34-0.44,0.68-0.63,1.03c-0.19,0.35-0.36,0.75-0.52,1.21
			c-0.16,0.45-0.29,0.83-0.38,1.14c-0.09,0.3-0.19,0.63-0.28,0.98c-0.09,0.35-0.15,0.54-0.16,0.57h-1.61c0-0.23,0.49-1.57,1.46-4.01
			c0.4-1.14,0.6-1.94,0.6-2.39c0-0.11-0.02-0.19-0.05-0.25h0.7c0.39,0,0.64,0.04,0.75,0.12c0.11,0.08,0.17,0.18,0.17,0.32
			c0,0.13-0.06,0.4-0.18,0.81c0.93-0.89,1.87-1.33,2.81-1.33c0.63,0,0.95,0.29,0.95,0.86c0,0.19-0.03,0.38-0.08,0.57
			c-0.06,0.19-0.19,0.57-0.42,1.13c-0.49,1.24-0.73,2.07-0.73,2.49c0,0.27,0.1,0.4,0.3,0.4c0.14,0,0.35-0.1,0.61-0.3
			c0.26-0.2,0.48-0.41,0.65-0.62c0.17-0.22,0.36-0.49,0.57-0.81c0.2-0.33,0.38-0.61,0.52-0.86c0.14-0.24,0.23-0.37,0.25-0.37
			c0.07,0,0.1,0.1,0.1,0.31C92.22,54.05,92.17,54.25,92.06,54.44z"/>
		<linearGradient id="SVGID_11_" gradientUnits="userSpaceOnUse" x1="91.4248" y1="54.5529" x2="98.2082" y2="54.5529">
			<stop  offset="0" style="stop-color:#BCD8F1"/>
			<stop  offset="1" style="stop-color:#8FAAD8"/>
		</linearGradient>
		<path class="st10" d="M98.11,53.46c0.07,0,0.1,0.11,0.1,0.32c0,0.22-0.09,0.47-0.27,0.77c-0.18,0.3-0.35,0.58-0.52,0.85
			c-0.17,0.27-0.4,0.58-0.69,0.93c-0.29,0.35-0.57,0.64-0.85,0.85c-0.7,0.51-1.4,0.76-2.1,0.76c-0.7,0-1.27-0.18-1.7-0.54
			c-0.43-0.36-0.65-0.91-0.65-1.65c0-1.13,0.42-2.18,1.25-3.14c0.83-0.96,1.8-1.45,2.91-1.45c0.5,0,0.9,0.13,1.2,0.39
			c0.3,0.26,0.45,0.57,0.45,0.94c0,0.62-0.29,1.12-0.88,1.5c-0.59,0.38-1.28,0.57-2.08,0.57c-0.47,0-0.81-0.06-1.03-0.18
			c-0.21,0.57-0.32,1.06-0.32,1.5c0,0.93,0.39,1.4,1.18,1.4c0.47,0,0.94-0.18,1.44-0.54c0.49-0.36,0.91-0.76,1.26-1.21
			c0.35-0.45,0.75-1.09,1.19-1.94C98.04,53.49,98.08,53.46,98.11,53.46z M96.35,52.14c0-0.32-0.16-0.48-0.47-0.48
			c-0.43,0-0.91,0.27-1.45,0.8c-0.53,0.53-0.8,0.96-0.8,1.3c0,0.22,0.21,0.33,0.63,0.33c0.42,0,0.86-0.2,1.32-0.62
			C96.05,53.06,96.3,52.62,96.35,52.14z"/>
	</g>
	<linearGradient id="SVGID_12_" gradientUnits="userSpaceOnUse" x1="21.2616" y1="20.3499" x2="21.4559" y2="20.3499">
		<stop  offset="0.1592" style="stop-color:#A3C4E8"/>
		<stop  offset="0.5922" style="stop-color:#D0ECEB"/>
		<stop  offset="0.8878" style="stop-color:#8FAAD8"/>
	</linearGradient>
	<path class="st11" d="M21.46,20.45c-0.07-0.05-0.13-0.11-0.19-0.19L21.46,20.45z"/>
	<linearGradient id="SVGID_13_" gradientUnits="userSpaceOnUse" x1="15.2278" y1="24.207" x2="50.3687" y2="24.207">
		<stop  offset="0" style="stop-color:#A3C4E8"/>
		<stop  offset="0.4968" style="stop-color:#8FAAD8"/>
		<stop  offset="0.9944" style="stop-color:#FFFFFF"/>
	</linearGradient>
	<path class="st12" d="M23.71,14.77c1.33-0.95,2.82-1.74,4.46-2.37c1.64-0.63,3.32-1.1,5.04-1.41c1.72-0.31,3.44-0.44,5.15-0.39
		c1.71,0.05,3.3,0.28,4.76,0.7c1.46,0.42,2.76,1.02,3.89,1.8c1.13,0.78,1.99,1.76,2.58,2.92c0.57,1.19,0.83,2.4,0.77,3.64
		c-0.06,1.24-0.34,2.47-0.84,3.69c-0.5,1.22-1.19,2.41-2.07,3.55c-0.88,1.14-1.87,2.2-2.96,3.17c-1.69,1.5-3.63,2.86-5.83,4.08
		c-2.2,1.22-4.51,2.16-6.93,2.8c-2.42,0.64-4.9,0.93-7.42,0.87c-2.52-0.06-4.93-0.62-7.24-1.69c-0.5-0.24-0.92-0.48-1.25-0.71
		c-0.33-0.24-0.53-0.43-0.59-0.57c-0.06-0.14,0.04-0.21,0.29-0.2c0.25,0.01,0.72,0.15,1.41,0.41c1.57,0.64,3.24,0.97,5.01,0.98
		c1.77,0.01,3.51-0.17,5.22-0.55c-0.05-0.81,0.03-1.78,0.23-2.91c0.2-1.13,0.48-2.31,0.84-3.53c0.36-1.22,0.78-2.44,1.27-3.65
		c0.49-1.21,0.99-2.31,1.5-3.3c0.51-0.99,1.01-1.81,1.5-2.46c0.49-0.65,0.93-1.04,1.34-1.16c0.38-0.09,0.77-0.14,1.18-0.14
		c0.4,0,0.75,0.04,1.05,0.12c0.3,0.08,0.51,0.2,0.64,0.36c0.13,0.15,0.11,0.32-0.05,0.48c-0.45,0.52-1.02,1.34-1.71,2.46
		c-0.69,1.12-1.38,2.39-2.07,3.83c-0.69,1.44-1.33,2.96-1.93,4.56c-0.59,1.6-1.01,3.17-1.25,4.69c1.76-0.45,3.55-1.14,5.37-2.07
		c1.82-0.93,3.53-1.99,5.15-3.19c1.62-1.2,3.07-2.49,4.37-3.87c1.3-1.38,2.29-2.75,2.99-4.1c0.7-1.35,1.05-2.64,1.05-3.87
		c0-1.22-0.49-2.28-1.46-3.15c-0.83-0.78-1.9-1.32-3.19-1.62c-1.3-0.3-2.71-0.4-4.24-0.32c-1.53,0.08-3.13,0.33-4.79,0.75
		c-1.66,0.42-3.28,0.95-4.85,1.6c-1.57,0.65-3.04,1.4-4.42,2.25c-1.38,0.84-2.56,1.73-3.53,2.66c-0.24,0.21-0.42,0.16-0.53-0.16
		c-0.12-0.32-0.14-0.77-0.07-1.34c0.07-0.57,0.28-1.19,0.62-1.87C22.51,15.86,23.02,15.27,23.71,14.77z"/>
	<g>
		<linearGradient id="SVGID_14_" gradientUnits="userSpaceOnUse" x1="46.0481" y1="20.7024" x2="86.9317" y2="20.7024">
			<stop  offset="0" style="stop-color:#FFFFFF"/>
			<stop  offset="0.5782" style="stop-color:#A3C4E8"/>
			<stop  offset="0.8878" style="stop-color:#8FAAD8"/>
		</linearGradient>
		<path class="st13" d="M86.71,2.53c0.12-0.09,0.19,0,0.21,0.28c0.02,0.28-0.02,0.65-0.14,1.1c-0.12,0.45-0.31,0.93-0.57,1.43
			c-0.26,0.5-0.61,0.94-1.03,1.32c-0.38,0.31-1.06,0.73-2.05,1.24c-0.99,0.52-2.05,0.99-3.19,1.43c-0.86,0.53-1.9,1.25-3.12,2.14
			c-1.22,0.89-2.56,1.9-4.01,3.03c-1.45,1.13-2.97,2.34-4.56,3.64c-1.59,1.3-3.2,2.65-4.83,4.04c-1.63,1.39-3.23,2.8-4.79,4.21
			c-1.57,1.41-3.04,2.77-4.42,4.09c2.07-0.78,4.15-1.5,6.26-2.14c2.1-0.64,4.22-1.09,6.36-1.34c0.4-0.03,0.82-0.07,1.25-0.12
			c0.43-0.05,0.84-0.05,1.25-0.02c0.4,0.03,0.8,0.13,1.19,0.28c0.39,0.16,0.75,0.41,1.09,0.75c0.31,0.31,0.48,0.55,0.5,0.7
			c0.02,0.16-0.04,0.26-0.18,0.31c-0.14,0.05-0.34,0.07-0.61,0.07c-0.26,0-0.53,0-0.82,0c-1.71,0-3.6,0.3-5.67,0.89
			c-2.07,0.6-4.17,1.36-6.31,2.3c-2.14,0.94-4.22,1.99-6.26,3.15c-2.03,1.16-3.87,2.3-5.51,3.43c-0.43,0.28-0.66,0.18-0.7-0.31
			c-0.04-0.49,0.13-1.13,0.5-1.93c0.37-0.8,0.95-1.65,1.75-2.56c0.8-0.91,1.82-1.64,3.08-2.21c1.85-2.07,3.75-4.01,5.7-5.83
			c1.95-1.82,3.94-3.57,5.97-5.26c2.03-1.69,4.08-3.35,6.15-4.98c2.07-1.63,4.15-3.27,6.24-4.93c-1.97,0.41-3.86,0.8-5.65,1.17
			c-1.79,0.38-3.56,0.81-5.31,1.29c-1.75,0.49-3.51,1.07-5.28,1.74c-1.77,0.67-3.63,1.51-5.58,2.51c-0.12,0.06-0.2-0.05-0.23-0.35
			c-0.04-0.3-0.01-0.67,0.07-1.1c0.08-0.44,0.24-0.89,0.48-1.36c0.24-0.47,0.59-0.83,1.07-1.08c1.64-0.85,3.33-1.54,5.08-2.09
			c1.75-0.55,3.53-1.03,5.35-1.43c1.82-0.41,3.65-0.8,5.49-1.17c1.84-0.38,3.66-0.83,5.45-1.36c1.79-0.53,3.56-1.19,5.29-1.97
			C83.42,4.75,85.1,3.75,86.71,2.53z"/>
	</g>
	<path class="st14" d="M31.48,30.3c-0.01,0.02-0.01,0.03-0.02,0.05c-0.17,0.47-0.33,0.94-0.47,1.4l1.59,1.56
		c0.45-0.18,0.91-0.38,1.36-0.6L31.48,30.3z M80.33,13.83l-2.54-2.37c-0.21,0.15-0.43,0.31-0.65,0.47
		c-0.16,0.12-0.32,0.24-0.49,0.36l2.36,2.21l0.13,1.17l-8.42,8.27l-0.56,0.55l-1.87,1.83c0.17-0.01,0.35-0.02,0.51-0.02
		c0.18,0,0.36,0.01,0.53,0.02c0.26,0.02,0.53,0.06,0.78,0.13l2-1.97l0.56-0.55l7.9-7.76L80.33,13.83z M31.48,30.3
		c-0.01,0.02-0.01,0.03-0.02,0.05c-0.17,0.47-0.33,0.94-0.47,1.4l1.59,1.56c0.45-0.18,0.91-0.38,1.36-0.6L31.48,30.3z M64.97,30.4
		c-0.4,0.11-0.8,0.23-1.2,0.36L47.87,46.39L36.93,35.65c-0.45,0.21-0.9,0.41-1.36,0.59l12.3,12.09l18.65-18.32
		C66.01,30.12,65.5,30.25,64.97,30.4z M71.03,5.15H24.46l-9.05,8.68l-0.27,2.34l7.9,7.76l0.56,0.55l4.2,4.12
		c0.15-0.49,0.3-0.98,0.47-1.47l-2.7-2.65L25,23.93l-3.55-3.49l-0.19-0.19l-4.67-4.59l0.14-1.18l8.3-7.95h45.47l1.63,1.52
		c0.54-0.12,1.07-0.25,1.61-0.38L71.03,5.15z"/>
	<polygon class="st14" points="17.6,26.87 18.33,27.06 1.04,27.06 1.04,26.87 	"/>
	<polygon class="st14" points="95.87,26.87 95.87,27.06 77.04,27.06 77.78,26.87 	"/>
	<text transform="matrix(1 0 0 1 62.2061 63.1571)" class="st14 st15 st16">sparkle your life</text>
</g>
</svg>
